{
	"asset":{
		"generator":"Khronos glTF Blender I/O v3.6.27",
		"version":"2.0"
	},
	"extensionsUsed":[
		"KHR_materials_specular",
		"KHR_materials_ior",
		"KHR_materials_emissive_strength"
	],
	"scene":0,
	"scenes":[
		{
			"name":"Scene",
			"nodes":[
				0,
				1,
				2,
				3
			]
		}
	],
	"nodes":[
		{
			"mesh":0,
			"name":"LaptopBase",
			"translation":[
				0,
				0.009783606976270676,
				0
			]
		},
		{
			"mesh":1,
			"name":"LaptopMontor",
			"rotation":[
				0,
				0,
				0.7601513266563416,
				0.6497460603713989
			],
			"translation":[
				-0.2582729458808899,
				0.01626250147819519,
				0
			]
		},
		{
			"mesh":2,
			"name":"LaptopConnecter",
			"rotation":[
				0.7071068286895752,
				0,
				0,
				0.7071068286895752
			],
			"scale":[
				0.0036936835385859013,
				0.012824663892388344,
				0.0036936835385859013
			],
			"translation":[
				-0.25692683458328247,
				0.017539910972118378,
				-0.16901074349880219
			]
		},
		{
			"mesh":3,
			"name":"LaptopConnecter.001",
			"rotation":[
				0.7071068286895752,
				0,
				0,
				0.7071068286895752
			],
			"scale":[
				0.0036936835385859013,
				0.012824663892388344,
				0.0036936835385859013
			],
			"translation":[
				-0.25692683458328247,
				0.017539910972118378,
				0.1489451378583908
			]
		}
	],
	"materials":[
		{
			"doubleSided":true,
			"extensions":{
				"KHR_materials_specular":{
					"specularColorFactor":[
						0.5579664642582282,
						0.5579664642582282,
						0.5579664642582282
					]
				},
				"KHR_materials_ior":{
					"ior":1.4500000476837158
				}
			},
			"name":"LaptopBody",
			"pbrMetallicRoughness":{
				"baseColorFactor":[
					0.004895541816949844,
					0.004895541816949844,
					0.004895541816949844,
					1
				],
				"metallicFactor":0.4313725531101227,
				"roughnessFactor":0.28431373834609985
			}
		},
		{
			"doubleSided":true,
			"extensions":{
				"KHR_materials_specular":{
					"specularColorFactor":[
						0.9066955750915848,
						0.9066955750915848,
						0.9066955750915848
					]
				},
				"KHR_materials_ior":{
					"ior":1.4500000476837158
				}
			},
			"name":"Laptop_TouchPad",
			"pbrMetallicRoughness":{
				"baseColorFactor":[
					0.007193528115749359,
					0.007193528115749359,
					0.007193528115749359,
					1
				],
				"metallicFactor":0.3235294222831726,
				"roughnessFactor":0.29411762952804565
			}
		},
		{
			"doubleSided":true,
			"emissiveFactor":[
				0.006622000068983858,
				1,
				0
			],
			"extensions":{
				"KHR_materials_emissive_strength":{
					"emissiveStrength":2.316484561716848
				}
			},
			"name":"LaptopLight",
			"pbrMetallicRoughness":{
				"baseColorFactor":[
					0.0023096660152077675,
					0.8000000715255737,
					0,
					1
				],
				"metallicFactor":0,
				"roughnessFactor":0.5
			}
		},
		{
			"doubleSided":true,
			"name":"LaptopButtons",
			"pbrMetallicRoughness":{
				"baseColorFactor":[
					0.018847797065973282,
					0.018847797065973282,
					0.018847797065973282,
					1
				],
				"metallicFactor":0,
				"roughnessFactor":0.3235294222831726
			}
		},
		{
			"doubleSided":true,
			"emissiveFactor":[
				0.053924975138027076,
				0.38374688947915025,
				0.7455167218299437
			],
			"name":"LaptopScreen",
			"pbrMetallicRoughness":{
				"baseColorFactor":[
					0.03153447434306145,
					0.3911980092525482,
					0.8000000715255737,
					1
				],
				"metallicFactor":0,
				"roughnessFactor":0.5
			}
		}
	],
	"meshes":[
		{
			"name":"Cube.001",
			"primitives":[
				{
					"attributes":{
						"POSITION":0,
						"NORMAL":1,
						"TEXCOORD_0":2
					},
					"indices":3,
					"material":0
				},
				{
					"attributes":{
						"POSITION":4,
						"NORMAL":5,
						"TEXCOORD_0":6
					},
					"indices":7,
					"material":1
				},
				{
					"attributes":{
						"POSITION":8,
						"NORMAL":9,
						"TEXCOORD_0":10
					},
					"indices":11,
					"material":2
				},
				{
					"attributes":{
						"POSITION":12,
						"NORMAL":13,
						"TEXCOORD_0":14
					},
					"indices":15,
					"material":3
				}
			]
		},
		{
			"name":"Cube.003",
			"primitives":[
				{
					"attributes":{
						"POSITION":16,
						"NORMAL":17,
						"TEXCOORD_0":18
					},
					"indices":19,
					"material":0
				},
				{
					"attributes":{
						"POSITION":20,
						"NORMAL":21,
						"TEXCOORD_0":22
					},
					"indices":23,
					"material":4
				}
			]
		},
		{
			"name":"Cylinder",
			"primitives":[
				{
					"attributes":{
						"POSITION":24,
						"NORMAL":25,
						"TEXCOORD_0":26
					},
					"indices":27,
					"material":0
				}
			]
		},
		{
			"name":"Cylinder.001",
			"primitives":[
				{
					"attributes":{
						"POSITION":28,
						"NORMAL":29,
						"TEXCOORD_0":30
					},
					"indices":27,
					"material":0
				}
			]
		}
	],
	"accessors":[
		{
			"bufferView":0,
			"componentType":5126,
			"count":5570,
			"max":[
				0.1595197319984436,
				0.01143661979585886,
				0.30279240012168884
			],
			"min":[
				-0.257885605096817,
				-0.008578195236623287,
				-0.30279240012168884
			],
			"type":"VEC3"
		},
		{
			"bufferView":1,
			"componentType":5126,
			"count":5570,
			"type":"VEC3"
		},
		{
			"bufferView":2,
			"componentType":5126,
			"count":5570,
			"type":"VEC2"
		},
		{
			"bufferView":3,
			"componentType":5123,
			"count":12678,
			"type":"SCALAR"
		},
		{
			"bufferView":4,
			"componentType":5126,
			"count":10,
			"max":[
				0.12696456909179688,
				0.008578195236623287,
				0.10220932215452194
			],
			"min":[
				0.05067310109734535,
				0.008578195236623287,
				-0.08455729484558105
			],
			"type":"VEC3"
		},
		{
			"bufferView":5,
			"componentType":5126,
			"count":10,
			"type":"VEC3"
		},
		{
			"bufferView":6,
			"componentType":5126,
			"count":10,
			"type":"VEC2"
		},
		{
			"bufferView":7,
			"componentType":5123,
			"count":24,
			"type":"SCALAR"
		},
		{
			"bufferView":8,
			"componentType":5126,
			"count":4,
			"max":[
				0.1595197319984436,
				0.005135620944201946,
				-0.2866930365562439
			],
			"min":[
				0.1595197319984436,
				0.002842758782207966,
				-0.29536065459251404
			],
			"type":"VEC3"
		},
		{
			"bufferView":9,
			"componentType":5126,
			"count":4,
			"type":"VEC3"
		},
		{
			"bufferView":10,
			"componentType":5126,
			"count":4,
			"type":"VEC2"
		},
		{
			"bufferView":11,
			"componentType":5123,
			"count":6,
			"type":"SCALAR"
		},
		{
			"bufferView":12,
			"componentType":5126,
			"count":280,
			"max":[
				0.027592604979872704,
				0.01143661979585886,
				0.26912999153137207
			],
			"min":[
				-0.21437908709049225,
				0.01143661979585886,
				-0.27685829997062683
			],
			"type":"VEC3"
		},
		{
			"bufferView":13,
			"componentType":5126,
			"count":280,
			"type":"VEC3"
		},
		{
			"bufferView":14,
			"componentType":5126,
			"count":280,
			"type":"VEC2"
		},
		{
			"bufferView":15,
			"componentType":5123,
			"count":420,
			"type":"SCALAR"
		},
		{
			"bufferView":16,
			"componentType":5126,
			"count":236,
			"max":[
				0.4177927076816559,
				0.01533846091479063,
				0.30279240012168884
			],
			"min":[
				0.000387340784072876,
				-0.001817929558455944,
				-0.30279240012168884
			],
			"type":"VEC3"
		},
		{
			"bufferView":17,
			"componentType":5126,
			"count":236,
			"type":"VEC3"
		},
		{
			"bufferView":18,
			"componentType":5126,
			"count":236,
			"type":"VEC2"
		},
		{
			"bufferView":19,
			"componentType":5123,
			"count":366,
			"type":"SCALAR"
		},
		{
			"bufferView":20,
			"componentType":5126,
			"count":4,
			"max":[
				0.40163180232048035,
				0.003811949398368597,
				0.2857443690299988
			],
			"min":[
				0.018322547897696495,
				0.003811949398368597,
				-0.2857443690299988
			],
			"type":"VEC3"
		},
		{
			"bufferView":21,
			"componentType":5126,
			"count":4,
			"type":"VEC3"
		},
		{
			"bufferView":22,
			"componentType":5126,
			"count":4,
			"type":"VEC2"
		},
		{
			"bufferView":23,
			"componentType":5123,
			"count":6,
			"type":"SCALAR"
		},
		{
			"bufferView":24,
			"componentType":5126,
			"count":192,
			"max":[
				1,
				1,
				1
			],
			"min":[
				-1,
				-1,
				-1
			],
			"type":"VEC3"
		},
		{
			"bufferView":25,
			"componentType":5126,
			"count":192,
			"type":"VEC3"
		},
		{
			"bufferView":26,
			"componentType":5126,
			"count":192,
			"type":"VEC2"
		},
		{
			"bufferView":27,
			"componentType":5123,
			"count":372,
			"type":"SCALAR"
		},
		{
			"bufferView":28,
			"componentType":5126,
			"count":192,
			"max":[
				1,
				1,
				1
			],
			"min":[
				-1,
				-1,
				-1
			],
			"type":"VEC3"
		},
		{
			"bufferView":29,
			"componentType":5126,
			"count":192,
			"type":"VEC3"
		},
		{
			"bufferView":30,
			"componentType":5126,
			"count":192,
			"type":"VEC2"
		}
	],
	"bufferViews":[
		{
			"buffer":0,
			"byteLength":66840,
			"byteOffset":0,
			"target":34962
		},
		{
			"buffer":0,
			"byteLength":66840,
			"byteOffset":66840,
			"target":34962
		},
		{
			"buffer":0,
			"byteLength":44560,
			"byteOffset":133680,
			"target":34962
		},
		{
			"buffer":0,
			"byteLength":25356,
			"byteOffset":178240,
			"target":34963
		},
		{
			"buffer":0,
			"byteLength":120,
			"byteOffset":203596,
			"target":34962
		},
		{
			"buffer":0,
			"byteLength":120,
			"byteOffset":203716,
			"target":34962
		},
		{
			"buffer":0,
			"byteLength":80,
			"byteOffset":203836,
			"target":34962
		},
		{
			"buffer":0,
			"byteLength":48,
			"byteOffset":203916,
			"target":34963
		},
		{
			"buffer":0,
			"byteLength":48,
			"byteOffset":203964,
			"target":34962
		},
		{
			"buffer":0,
			"byteLength":48,
			"byteOffset":204012,
			"target":34962
		},
		{
			"buffer":0,
			"byteLength":32,
			"byteOffset":204060,
			"target":34962
		},
		{
			"buffer":0,
			"byteLength":12,
			"byteOffset":204092,
			"target":34963
		},
		{
			"buffer":0,
			"byteLength":3360,
			"byteOffset":204104,
			"target":34962
		},
		{
			"buffer":0,
			"byteLength":3360,
			"byteOffset":207464,
			"target":34962
		},
		{
			"buffer":0,
			"byteLength":2240,
			"byteOffset":210824,
			"target":34962
		},
		{
			"buffer":0,
			"byteLength":840,
			"byteOffset":213064,
			"target":34963
		},
		{
			"buffer":0,
			"byteLength":2832,
			"byteOffset":213904,
			"target":34962
		},
		{
			"buffer":0,
			"byteLength":2832,
			"byteOffset":216736,
			"target":34962
		},
		{
			"buffer":0,
			"byteLength":1888,
			"byteOffset":219568,
			"target":34962
		},
		{
			"buffer":0,
			"byteLength":732,
			"byteOffset":221456,
			"target":34963
		},
		{
			"buffer":0,
			"byteLength":48,
			"byteOffset":222188,
			"target":34962
		},
		{
			"buffer":0,
			"byteLength":48,
			"byteOffset":222236,
			"target":34962
		},
		{
			"buffer":0,
			"byteLength":32,
			"byteOffset":222284,
			"target":34962
		},
		{
			"buffer":0,
			"byteLength":12,
			"byteOffset":222316,
			"target":34963
		},
		{
			"buffer":0,
			"byteLength":2304,
			"byteOffset":222328,
			"target":34962
		},
		{
			"buffer":0,
			"byteLength":2304,
			"byteOffset":224632,
			"target":34962
		},
		{
			"buffer":0,
			"byteLength":1536,
			"byteOffset":226936,
			"target":34962
		},
		{
			"buffer":0,
			"byteLength":744,
			"byteOffset":228472,
			"target":34963
		},
		{
			"buffer":0,
			"byteLength":2304,
			"byteOffset":229216,
			"target":34962
		},
		{
			"buffer":0,
			"byteLength":2304,
			"byteOffset":231520,
			"target":34962
		},
		{
			"buffer":0,
			"byteLength":1536,
			"byteOffset":233824,
			"target":34962
		}
	],
	"buffers":[
		{
			"byteLength":235360,
			"uri":"laptop.bin"
		}
	]
}
